# xmcd
# 
# Track frame offsets:
#     182
#     12905
#     25622
#     38565
#     49237
#     61407
#     73275
#     84920
#     96810
#     130197
#     147252
#     161595
#     175665
#     195105
# 
# Disc length: 2772
# 
# Revision: 11
# Processed by: cddbd v1.5.2PL0 Copyright (c) Steve Scherf et al.
# Submitted via: fre:ac v1.0.17
# 
DISCID=ad0ad20e
DTITLE=Various Artist - The Great Blues Album
DYEAR=1993
DGENRE=Blues
TTITLE0=Big Bill Broonzy - Lonesome
TTITLE1=Jimmy Rodgers - That's All Right
TTITLE2=Memphis Minnie - Me And My Chauffeur
TTITLE3=B.B. King - Recession Blues
TTITLE4=Elmore James - The Sun Is Shining
TTITLE5=Albert King - Wild Woman
TTITLE6=Etta James - I'd Rather Go Blind
TTITLE7=Little Walter - Temperature
TTITLE8=Buddy Guy - Stone Crazy
TTITLE9=Howlin' Wolf - The Red Rooster
TTITLE10=Lowell Fulson - Reconsider Baby
TTITLE11=Muddy Waters - Forty Days And Forty Nights
TTITLE12=Koko Taylor - Insane Asylum
TTITLE13=John Lee Hooker - Hobo Blues
EXTD=
EXTT0=(Broonzy)
EXTT1=(Lane)
EXTT2=(Minnie)
EXTT3=(King)
EXTT4=(James)
EXTT5=(King)
EXTT6=(Jordon/Foster)
EXTT7=(Jacobs/Cohen)
EXTT8=(Guy)
EXTT9=(Dixon)
EXTT10=(Fulson)
EXTT11=(Roth)
EXTT12=(Dixon)
EXTT13=(Hooker)
PLAYORDER=
